<?xml version="1.0" encoding="utf-8"?>
<!-- Generator: Adobe Illustrator 27.1.1, SVG Export Plug-In . SVG Version: 6.00 Build 0)  -->
<svg version="1.1" id="Capa_1" xmlns="http://www.w3.org/2000/svg" xmlns:xlink="http://www.w3.org/1999/xlink" x="0px" y="0px"
	 viewBox="0 0 374.4 183.5" style="enable-background:new 0 0 374.4 183.5;" xml:space="preserve">
<style type="text/css">
	.st0{fill-rule:evenodd;clip-rule:evenodd;fill:#FFFFFF;}
</style>
<path class="st0" d="M21.8,106.1c4.7,3.2,10.2,5.3,16.4,6.5c1.3,0.3,2.6,0.5,3.9,0.7c7.5,1,16.3,1.6,26.3,1.6h0h38.2h0l3-22.9h0l0,0
	H72.3c-4,0-7.5-0.2-10.5-0.5c-0.5-0.1-1-0.1-1.5-0.2c-0.3,0-0.5-0.1-0.8-0.1c-5.9-0.7-12.4-1.9-16.5-6.5c-3.1-3.6-4.7-8.6-4.6-15.5
	h74.3l3-22.9h0l0,0H41.3c1.4-6.2,3.1-10.4,4.9-12.8c3.5-4.4,7.5-7.2,12.2-8.5c3.8-1.1,10.2-1.8,19.1-2c1,0,2,0,3,0h38.2v0h0
	l2.8-21.5l0.2-1.4h0H72.3h0c-0.2,0-0.4,0-0.6,0c-0.9,0-1.8,0-2.7,0c-1.6,0-3.1,0.1-4.5,0.2c-3,0.1-5.8,0.4-8.2,0.7
	c-1.4,0.2-2.7,0.4-3.9,0.6c0,0-0.1,0-0.1,0c-6.9,1.4-13.5,4.3-19.7,8.6c-14,9.7-22.8,22.7-26.5,39c-0.5,2.3-1,4.7-1.3,7.2
	C3.1,68.2,4,78.7,7.6,87.7C10.9,96,15.6,102,21.8,106.1z M123.5,131.6l-20.9,11.1H0.4h0L0,145.3l0,0.3v0l117.3,37.9l24.2-15.6
	L357,136.4l0.6-4.8H123.5L123.5,131.6z M374.4,0H325c-1,0-2,0-3,0c-6.8,0.1-12.5,0.6-17,1.5c0,0-0.1,0-0.1,0
	c-6.9,1.4-13.5,4.3-19.7,8.6c-16,11.1-25.2,26.5-27.8,46.2c-1.6,11.9-0.6,22.4,3,31.4c4.3,10.9,11.2,17.9,20.5,21.9
	c1.5,0.6,3,1.2,4.6,1.7c0.2,0.1,0.5,0.2,0.7,0.2c0.5,0.1,0.9,0.2,1.4,0.4c0.5,0.1,0.9,0.3,1.4,0.4c0.2,0,0.4,0.1,0.6,0.1
	c1.7,0.4,3.5,0.7,5.4,1c6.6,0.9,14.1,1.4,22.6,1.5c1.2,0,2.4,0,3.7,0h0h38.2h0l3-22.9h0l0,0H325c-4.6,0-8.7-0.2-12-0.6
	c-6.1-0.7-13-1.8-17.4-6.6c-3.1-3.6-4.7-8.6-4.6-15.5h74.3l3-22.9h0l0,0H294c1.4-6.2,3.1-10.4,4.9-12.8c3.5-4.4,7.5-7.2,12.2-8.5
	c3.8-1.1,10.1-1.8,19.1-2c1,0,2,0,3,0h38.2v0h0l2.8-21.6L374.4,0L374.4,0z M153.6,114.9L153.6,114.9l5.1-39.2h43.9
	c1.2,0,2.3,0,3.4,0c7.8-0.2,14-1.1,18.6-2.7c8.7-3,15.6-8,20.8-15c6.2-8.3,9.6-18.9,8.3-29c-0.3-1.9-0.7-3.9-1.3-5.8
	c-0.5-1.7-1.2-3.3-2.1-5c-4.2-8.1-10.8-13.5-19.5-16.1c0,0-0.1,0-0.1,0c-5.3-1.5-14-2.2-25.9-2.2h-67.5h0l-15.1,114.9h0H153.6z
	 M165.7,22.9h37.6c4.6,0,7.8,0.4,9.7,1c0.1,0,0.2,0,0.2,0.1c0.1,0,0.2,0.1,0.3,0.1c3.9,1.5,5.9,4.8,6.3,8.6
	c0.8,6.5-2.7,14.4-7.5,17.5c-2,1.2-5,2-9.3,2.4c-0.7,0.1-1.5,0.1-2.2,0.1c-0.8,0-1.6,0-2.4,0h-36.6L165.7,22.9z"/>
</svg>
