<?xml version="1.0" encoding="utf-8"?>
<!-- Generator: Adobe Illustrator 27.1.1, SVG Export Plug-In . SVG Version: 6.00 Build 0)  -->
<svg version="1.1" id="oficinaVirtual" xmlns="http://www.w3.org/2000/svg" xmlns:xlink="http://www.w3.org/1999/xlink" x="0px"
	 y="0px" viewBox="0 0 168 80" style="enable-background:new 0 0 168 80;" xml:space="preserve">
<style type="text/css">
	.st0{fill:#EE4C4C;}
	.st1{fill:#00376E;}
</style>
<g>
	<g>
		<path class="st0" d="M103.4,19.1c-1.3-3.7-3.6-7-6.7-9.4c-0.2-0.1-0.4-0.1-0.5,0.1c-0.1,0.2-0.1,0.4,0.1,0.5
			c3,2.4,5.2,5.5,6.4,9.1c0.1,0.2,0.2,0.2,0.3,0.2c0,0,0.1,0,0.1,0C103.3,19.5,103.4,19.3,103.4,19.1z"/>
		<path class="st0" d="M91.4,6.6c-0.2-0.1-0.4,0-0.5,0.2c-0.1,0.2,0,0.4,0.2,0.5c1.3,0.5,2.6,1.2,3.8,2c0.1,0,0.1,0.1,0.2,0.1
			c0.1,0,0.2-0.1,0.3-0.2c0.1-0.2,0.1-0.4-0.1-0.5C94.1,7.8,92.8,7.1,91.4,6.6z"/>
		<path class="st0" d="M89.8,6.1c-0.8-0.2-1.5-0.4-2.3-0.5c-0.2,0-0.4,0.1-0.4,0.3c0,0.2,0.1,0.4,0.3,0.4c0.8,0.1,1.5,0.3,2.2,0.5
			c0,0,0.1,0,0.1,0c0.2,0,0.3-0.1,0.3-0.3C90.1,6.3,90,6.1,89.8,6.1z"/>
	</g>
	<g>
		<path class="st1" d="M109.6,24.2c-0.3-6.3-3-12.3-7.6-16.8C97.5,3,91.5,0.3,85.2,0c-7.1-0.3-13.8,2.2-18.9,7.1
			c-5.1,4.9-7.9,11.5-7.9,18.6c0,4.3,1.1,8.6,3.2,12.4c0,0,0,0.1,0.1,0.1l0.1,0.1c0.2,0.4,0.5,0.8,0.7,1.2l6.9,11.4
			c1.8,3,2.9,6.2,3.3,9.6c0.2,1.4,0.9,2.7,2,3.5c-0.4,0.5-0.7,1.2-0.7,2c0,1,0.5,1.9,1.3,2.5c-0.2,0.4-0.3,0.9-0.3,1.4
			c0,1,0.5,1.9,1.2,2.4c-0.2,0.4-0.4,0.9-0.4,1.4c0,1.7,1.4,3,3,3h0.1c0.6,1.8,2.7,3.2,5.2,3.2c2.5,0,4.6-1.3,5.2-3.2h0.1
			c1.7,0,3-1.4,3-3c0-0.5-0.1-1-0.4-1.4c0.7-0.6,1.2-1.4,1.2-2.4c0-0.5-0.1-1-0.3-1.4c0.8-0.5,1.3-1.4,1.3-2.5c0-0.7-0.3-1.4-0.7-2
			c1.1-0.8,1.8-2.1,2-3.5c0.4-3.4,1.5-6.7,3.3-9.6l6.9-11.4c0.2-0.4,0.5-0.8,0.7-1.1l0.1-0.2c0,0,0-0.1,0.1-0.1
			C108.8,33.8,109.9,29.1,109.6,24.2z M91,69.9c0,0.5-0.4,0.8-0.8,0.8h-0.9H78.7h-0.9c-0.5,0-0.8-0.4-0.8-0.8c0-0.5,0.4-0.8,0.8-0.8
			h12.3C90.6,69.1,91,69.5,91,69.9z M84,77.8c-1.1,0-2.1-0.4-2.7-1h5.4C86.1,77.4,85.1,77.8,84,77.8z M89.3,74.7H78.7
			c-0.5,0-0.8-0.4-0.8-0.8c0-0.5,0.4-0.8,0.8-0.8h10.6c0.5,0,0.8,0.4,0.8,0.8C90.1,74.3,89.8,74.7,89.3,74.7z M91.1,65.2
			c0.5,0,0.8,0.4,0.8,0.8c0,0.5-0.4,0.8-0.8,0.8h-0.9H77.9h-0.9c-0.5,0-0.8-0.4-0.8-0.8c0-0.5,0.4-0.8,0.8-0.8h0.9h12.3H91.1z
			 M83,31.4c-1.8-0.4-3.2-0.9-4.3-1.4c-1-0.5-1.9-1.2-2.7-2.1c-0.7-1-1.1-2.3-1.1-3.9c0-2.1,0.7-3.8,2.2-5.1
			c1.4-1.4,3.4-2.1,5.8-2.3c0.2,0,0.3-0.2,0.3-0.4v-3h1.4v3c0,0.2,0.1,0.3,0.3,0.4c2.2,0.2,4,0.9,5.3,2.1c1.2,1.1,2,2.6,2.3,4.3
			h-3.2c-0.2-0.9-0.6-1.7-1.3-2.4c-0.7-0.8-1.7-1.4-3-1.6c-0.1,0-0.2,0-0.3,0.1c-0.1,0.1-0.1,0.2-0.1,0.3v9.8c0,0.2,0.1,0.3,0.3,0.4
			c1.7,0.5,3.2,0.9,4.3,1.4c1.1,0.4,1.9,1.2,2.7,2.1c0.7,1,1.1,2.3,1.1,3.9c0,1.1-0.2,2.1-0.7,3.1c-0.2,0.3-0.3,0.6-0.3,0.9L87.3,63
			h-6.9l-4.7-22.3c-0.1-0.3-0.2-0.6-0.3-0.9c-0.3-0.7-0.4-1.4-0.5-2.1h3.2c0.2,1.1,0.6,2,1.3,2.8c0.8,0.9,1.9,1.5,3.3,1.7
			c0.1,0,0.2,0,0.3-0.1c0.1-0.1,0.1-0.2,0.1-0.3V31.8C83.3,31.6,83.2,31.5,83,31.4z M104.5,37.1C104.5,37.1,104.5,37.1,104.5,37.1
			l-0.1,0.2c-0.2,0.4-0.4,0.7-0.7,1.1l-6.9,11.5c-1.9,3.2-3.2,6.8-3.6,10.5C93,61.9,91.7,63,90.2,63h-2.1l4.7-21.9
			c0-0.2,0.1-0.5,0.3-0.7c0.5-1.1,0.8-2.3,0.8-3.5c0-1.8-0.4-3.3-1.2-4.4c-0.8-1.1-1.8-1.9-3-2.4c-1.1-0.4-2.5-0.9-4.1-1.3v-9.1
			c0.9,0.3,1.6,0.7,2.1,1.3c0.6,0.7,1,1.5,1.2,2.4c0,0.2,0.2,0.3,0.4,0.3h3.9c0.1,0,0.2,0,0.3-0.1c0.1-0.1,0.1-0.2,0.1-0.3
			c-0.2-2.1-1.1-3.9-2.5-5.2c-1.4-1.3-3.2-2-5.4-2.3v-3c0-0.2-0.2-0.4-0.4-0.4h-2.2c-0.2,0-0.4,0.2-0.4,0.4v3c-2.4,0.2-4.4,1-6,2.5
			c-1.6,1.5-2.4,3.4-2.4,5.7c0,1.8,0.4,3.3,1.2,4.3c0.8,1.1,1.8,1.9,3,2.4c1.1,0.5,2.5,0.9,4.1,1.4v9.4c-1.1-0.2-1.9-0.7-2.5-1.4
			c-0.7-0.8-1.1-1.7-1.2-2.7c0-0.2-0.2-0.3-0.4-0.3h-3.9c-0.1,0-0.2,0-0.3,0.1c-0.1,0.1-0.1,0.2-0.1,0.3c0,1,0.2,1.9,0.5,2.8
			c0.1,0.2,0.2,0.5,0.2,0.8L79.7,63h-1.8c-1.6,0-2.9-1.2-3.1-2.7c-0.5-3.7-1.7-7.3-3.6-10.5l-6.9-11.4c-0.2-0.4-0.5-0.8-0.7-1.2
			l0-0.1c0,0,0,0,0,0c-1.9-3.5-3-7.4-3-11.4c0-6.5,2.6-12.5,7.3-17c4.7-4.5,10.8-6.8,17.3-6.5c5.8,0.3,11.3,2.7,15.4,6.8
			c4.2,4.1,6.6,9.6,6.9,15.3C107.7,28.8,106.7,33.2,104.5,37.1z"/>
		<path class="st1" d="M83.3,19.2c0-0.1,0-0.2-0.1-0.3c-0.1-0.1-0.2-0.1-0.3-0.1c-1.5,0.1-2.7,0.6-3.6,1.4c-0.9,0.8-1.4,2-1.4,3.5
			c0,1.4,0.4,2.5,1.3,3.3c0.8,0.7,2,1.3,3.6,1.8c0,0,0.1,0,0.1,0c0.1,0,0.2,0,0.2-0.1c0.1-0.1,0.1-0.2,0.1-0.3V19.2z M82.6,28
			c-1.2-0.4-2.2-0.9-2.8-1.5c-0.7-0.6-1-1.5-1-2.8c0-1.3,0.4-2.2,1.1-2.9c0.7-0.6,1.6-1,2.7-1.2V28z"/>
		<path class="st1" d="M83.3,44.9c0-0.2-0.1-0.3-0.3-0.4c-2.4-0.2-4.3-1-5.8-2.3c-0.2-0.1-0.4-0.1-0.5,0c-0.1,0.2-0.1,0.4,0,0.5
			c1.5,1.3,3.5,2.2,5.8,2.4v2.9c0,0.2,0.2,0.4,0.4,0.4h2.2c0.2,0,0.4-0.2,0.4-0.4v-2.9c1.7-0.1,3.1-0.6,4.3-1.4
			c0.2-0.1,0.2-0.3,0.1-0.5c-0.1-0.2-0.3-0.2-0.5-0.1c-1.2,0.7-2.6,1.2-4.3,1.3c-0.2,0-0.3,0.2-0.3,0.4v2.9h-1.4V44.9z"/>
		<path class="st1" d="M85.1,42.2C85.1,42.2,85.1,42.2,85.1,42.2c1.6-0.2,2.8-0.7,3.7-1.7c0.9-1,1.3-2.1,1.3-3.4
			c0-1.4-0.4-2.5-1.3-3.3c-0.8-0.7-2-1.3-3.6-1.8c-0.1,0-0.2,0-0.3,0.1c-0.1,0.1-0.1,0.2-0.1,0.3v9.5c0,0.1,0,0.2,0.1,0.3
			C84.9,42.2,85,42.2,85.1,42.2z M85.5,32.9c1.2,0.4,2.1,0.9,2.8,1.5c0.7,0.6,1.1,1.6,1.1,2.8c0,1.2-0.4,2.1-1.1,2.9
			c-0.7,0.7-1.6,1.2-2.8,1.4V32.9z"/>
	</g>
</g>
</svg>
